<svg width="963" height="227" viewBox="0 0 963 227" fill="none" xmlns="http://www.w3.org/2000/svg">
<path d="M163.647 36.0001C162.569 49.7563 167.53 81.3958 196 97.9033C155.02 107.677 147.471 128.312 141 137" stroke="#73DEF0" stroke-width="23"/>
<path d="M55.7922 41.8167C68.4393 47.4592 100.042 53.3489 125.275 31.7684C120.674 74.0823 137.641 88.1956 143.672 97.2738" stroke="#73DEF0" stroke-width="23"/>
<path d="M25.3902 145.997C34.9358 135.964 51.0512 108.148 39.1475 77.1531C77.489 95.6343 96.4623 84.3617 107.035 81.7118" stroke="#73DEF0" stroke-width="23"/>
<path d="M113.41 209.479C107.145 197.129 86.3171 172.642 53.1255 173.499C83.3609 143.542 79.0795 121.892 80.1163 111.042" stroke="#73DEF0" stroke-width="23"/>
<path d="M204.961 144.405C191.316 146.77 161.795 159.495 152.874 191.476C133.108 153.781 111.155 151.52 101.087 147.345" stroke="#73DEF0" stroke-width="23"/>
<path d="M261.283 162C261.283 143.538 261.283 124.923 261.283 106.155C261.283 87.387 261.283 68.772 261.283 50.31C265.465 50.31 269.698 50.31 273.982 50.31C278.266 50.31 282.448 50.31 286.528 50.31C286.528 56.328 286.528 62.448 286.528 68.67C286.528 74.79 286.528 80.859 286.528 86.877C289.282 84.939 292.342 83.46 295.708 82.44C299.176 81.318 302.899 80.757 306.877 80.757C312.691 80.757 317.791 82.083 322.177 84.735C326.665 87.387 330.133 91.212 332.581 96.21C335.131 101.106 336.406 107.022 336.406 113.958C336.406 121.914 336.406 129.921 336.406 137.979C336.406 146.037 336.406 154.044 336.406 162C332.326 162 328.144 162 323.86 162C319.576 162 315.343 162 311.161 162C311.161 154.656 311.161 147.21 311.161 139.662C311.161 132.114 311.161 124.668 311.161 117.324C311.161 113.244 310.192 109.98 308.254 107.532C306.418 104.982 303.46 103.707 299.38 103.707C295.3 103.707 292.138 104.88 289.894 107.226C287.65 109.572 286.528 112.938 286.528 117.324C286.528 124.668 286.528 132.114 286.528 139.662C286.528 147.21 286.528 154.656 286.528 162C282.448 162 278.266 162 273.982 162C269.698 162 265.465 162 261.283 162ZM360.253 186.48C362.293 181.074 364.384 175.617 366.526 170.109C368.77 164.703 370.912 159.348 372.952 154.044C368.158 142.314 363.262 130.482 358.264 118.548C353.368 106.512 348.523 94.629 343.729 82.899C348.217 82.899 352.705 82.899 357.193 82.899C361.681 82.899 366.118 82.899 370.504 82.899C373.156 89.427 375.808 96.057 378.46 102.789C381.214 109.521 383.917 116.202 386.569 122.832C389.017 116.202 391.516 109.521 394.066 102.789C396.616 96.057 399.115 89.427 401.563 82.899C405.949 82.899 410.335 82.899 414.721 82.899C419.107 82.899 423.493 82.899 427.879 82.899C421.045 99.933 414.16 117.222 407.224 134.766C400.39 152.208 393.556 169.446 386.722 186.48C382.336 186.48 377.899 186.48 373.411 186.48C369.025 186.48 364.639 186.48 360.253 186.48ZM489.121 162C489.121 161.184 489.121 160.419 489.121 159.705C489.121 158.889 489.121 158.124 489.121 157.41C486.571 159.552 483.664 161.184 480.4 162.306C477.238 163.53 473.821 164.142 470.149 164.142C464.947 164.142 460.051 163.122 455.461 161.082C450.871 159.042 446.791 156.186 443.221 152.514C439.753 148.74 436.999 144.303 434.959 139.203C433.021 134.103 432.052 128.493 432.052 122.373C432.052 116.151 433.021 110.49 434.959 105.39C436.999 100.29 439.753 95.904 443.221 92.232C446.791 88.56 450.871 85.755 455.461 83.817C460.051 81.777 464.896 80.757 469.996 80.757C473.668 80.757 477.136 81.369 480.4 82.593C483.664 83.715 486.571 85.296 489.121 87.336C489.121 81.216 489.121 75.045 489.121 68.823C489.121 62.601 489.121 56.43 489.121 50.31C493.303 50.31 497.536 50.31 501.82 50.31C506.104 50.31 510.286 50.31 514.366 50.31C514.366 68.772 514.366 87.387 514.366 106.155C514.366 124.923 514.366 143.538 514.366 162C510.286 162 506.104 162 501.82 162C497.536 162 493.303 162 489.121 162ZM473.515 141.804C478.411 141.804 482.338 140.019 485.296 136.449C488.254 132.879 489.733 128.187 489.733 122.373C489.733 116.559 488.254 111.918 485.296 108.45C482.338 104.88 478.411 103.095 473.515 103.095C468.517 103.095 464.539 104.829 461.581 108.297C458.725 111.765 457.297 116.457 457.297 122.373C457.297 128.289 458.725 133.032 461.581 136.602C464.539 140.07 468.517 141.804 473.515 141.804ZM534.256 162C534.256 148.944 534.256 135.786 534.256 122.526C534.256 109.164 534.256 95.955 534.256 82.899C538.438 82.899 542.671 82.899 546.955 82.899C551.239 82.899 555.421 82.899 559.501 82.899C559.501 83.613 559.501 84.327 559.501 85.041C559.501 85.755 559.501 86.469 559.501 87.183C562.663 84.939 566.233 83.256 570.211 82.134C574.189 81.012 578.524 80.706 583.216 81.216C583.216 85.296 583.216 89.427 583.216 93.609C583.216 97.791 583.216 101.922 583.216 106.002C575.158 104.88 569.191 105.594 565.315 108.144C561.439 110.592 559.501 114.621 559.501 120.231C559.501 127.065 559.501 134.001 559.501 141.039C559.501 148.077 559.501 155.064 559.501 162C555.421 162 551.239 162 546.955 162C542.671 162 538.438 162 534.256 162ZM648.952 162C648.952 161.184 648.952 160.419 648.952 159.705C648.952 158.889 648.952 158.124 648.952 157.41C646.402 159.552 643.495 161.184 640.231 162.306C637.069 163.53 633.652 164.142 629.98 164.142C624.778 164.142 619.882 163.173 615.292 161.235C610.702 159.195 606.622 156.339 603.052 152.667C599.584 148.893 596.83 144.456 594.79 139.356C592.852 134.256 591.883 128.595 591.883 122.373C591.883 116.049 592.852 110.337 594.79 105.237C596.83 100.137 599.584 95.802 603.052 92.232C606.622 88.56 610.702 85.755 615.292 83.817C619.882 81.777 624.727 80.757 629.827 80.757C633.499 80.757 636.967 81.369 640.231 82.593C643.495 83.715 646.402 85.296 648.952 87.336C648.952 86.52 648.952 85.755 648.952 85.041C648.952 84.327 648.952 83.613 648.952 82.899C653.134 82.899 657.367 82.899 661.651 82.899C665.935 82.899 670.117 82.899 674.197 82.899C674.197 95.955 674.197 109.164 674.197 122.526C674.197 135.786 674.197 148.944 674.197 162C670.117 162 665.935 162 661.651 162C657.367 162 653.134 162 648.952 162ZM633.346 141.804C638.242 141.804 642.169 140.019 645.127 136.449C648.085 132.879 649.564 128.187 649.564 122.373C649.564 116.559 648.085 111.918 645.127 108.45C642.169 104.88 638.242 103.095 633.346 103.095C628.348 103.095 624.37 104.829 621.412 108.297C618.556 111.765 617.128 116.457 617.128 122.373C617.128 128.289 618.556 133.032 621.412 136.602C624.37 140.07 628.348 141.804 633.346 141.804ZM718.585 186.48C714.505 186.48 710.323 186.48 706.039 186.48C701.755 186.48 697.522 186.48 693.34 186.48C693.34 169.446 693.34 152.208 693.34 134.766C693.34 117.222 693.34 99.933 693.34 82.899C697.522 82.899 701.755 82.899 706.039 82.899C710.323 82.899 714.505 82.899 718.585 82.899C718.585 83.613 718.585 84.327 718.585 85.041C718.585 85.755 718.585 86.52 718.585 87.336C721.135 85.296 724.042 83.715 727.306 82.593C730.57 81.369 734.038 80.757 737.71 80.757C742.81 80.757 747.655 81.777 752.245 83.817C756.835 85.755 760.864 88.56 764.332 92.232C767.902 95.904 770.656 100.29 772.594 105.39C774.634 110.49 775.654 116.151 775.654 122.373C775.654 128.493 774.634 134.103 772.594 139.203C770.656 144.303 767.902 148.74 764.332 152.514C760.864 156.186 756.835 159.042 752.245 161.082C747.655 163.122 742.759 164.142 737.557 164.142C733.885 164.142 730.417 163.53 727.153 162.306C723.991 161.184 721.135 159.552 718.585 157.41C718.585 162.204 718.585 167.049 718.585 171.945C718.585 176.841 718.585 181.686 718.585 186.48ZM734.191 141.804C739.189 141.804 743.116 140.07 745.972 136.602C748.93 133.032 750.409 128.289 750.409 122.373C750.409 116.457 748.93 111.765 745.972 108.297C743.116 104.829 739.189 103.095 734.191 103.095C729.295 103.095 725.368 104.88 722.41 108.45C719.452 111.918 717.973 116.559 717.973 122.373C717.973 128.187 719.452 132.879 722.41 136.449C725.368 140.019 729.295 141.804 734.191 141.804ZM843.298 162C843.298 161.184 843.298 160.419 843.298 159.705C843.298 158.889 843.298 158.124 843.298 157.41C840.748 159.552 837.841 161.184 834.577 162.306C831.415 163.53 827.998 164.142 824.326 164.142C819.124 164.142 814.228 163.173 809.638 161.235C805.048 159.195 800.968 156.339 797.398 152.667C793.93 148.893 791.176 144.456 789.136 139.356C787.198 134.256 786.229 128.595 786.229 122.373C786.229 116.049 787.198 110.337 789.136 105.237C791.176 100.137 793.93 95.802 797.398 92.232C800.968 88.56 805.048 85.755 809.638 83.817C814.228 81.777 819.073 80.757 824.173 80.757C827.845 80.757 831.313 81.369 834.577 82.593C837.841 83.715 840.748 85.296 843.298 87.336C843.298 86.52 843.298 85.755 843.298 85.041C843.298 84.327 843.298 83.613 843.298 82.899C847.48 82.899 851.713 82.899 855.997 82.899C860.281 82.899 864.463 82.899 868.543 82.899C868.543 95.955 868.543 109.164 868.543 122.526C868.543 135.786 868.543 148.944 868.543 162C864.463 162 860.281 162 855.997 162C851.713 162 847.48 162 843.298 162ZM827.692 141.804C832.588 141.804 836.515 140.019 839.473 136.449C842.431 132.879 843.91 128.187 843.91 122.373C843.91 116.559 842.431 111.918 839.473 108.45C836.515 104.88 832.588 103.095 827.692 103.095C822.694 103.095 818.716 104.829 815.758 108.297C812.902 111.765 811.474 116.457 811.474 122.373C811.474 128.289 812.902 133.032 815.758 136.602C818.716 140.07 822.694 141.804 827.692 141.804ZM895.03 186.48C897.07 181.074 899.161 175.617 901.303 170.109C903.547 164.703 905.689 159.348 907.729 154.044C902.935 142.314 898.039 130.482 893.041 118.548C888.145 106.512 883.3 94.629 878.506 82.899C882.994 82.899 887.482 82.899 891.97 82.899C896.458 82.899 900.895 82.899 905.281 82.899C907.933 89.427 910.585 96.057 913.237 102.789C915.991 109.521 918.694 116.202 921.346 122.832C923.794 116.202 926.293 109.521 928.843 102.789C931.393 96.057 933.892 89.427 936.34 82.899C940.726 82.899 945.112 82.899 949.498 82.899C953.884 82.899 958.27 82.899 962.656 82.899C955.822 99.933 948.937 117.222 942.001 134.766C935.167 152.208 928.333 169.446 921.499 186.48C917.113 186.48 912.676 186.48 908.188 186.48C903.802 186.48 899.416 186.48 895.03 186.48Z" fill="#FAFAFA"/>
<path d="M844.389 54H835.582L835.638 48.3643H844.389C846.938 48.3643 849.072 47.8073 850.79 46.6934C852.527 45.5794 853.829 43.984 854.698 41.9072C855.585 39.8304 856.029 37.3571 856.029 34.4873V32.25C856.029 30.0221 855.774 28.0492 855.264 26.3311C854.773 24.613 854.037 23.1686 853.055 21.998C852.092 20.8275 850.903 19.9401 849.487 19.3359C848.09 18.7318 846.476 18.4297 844.644 18.4297H835.412V12.7656H844.644C847.382 12.7656 849.883 13.2282 852.149 14.1533C854.415 15.0596 856.369 16.3717 858.011 18.0898C859.673 19.8079 860.947 21.8659 861.835 24.2637C862.722 26.6615 863.166 29.3424 863.166 32.3066V34.4873C863.166 37.4515 862.722 40.1325 861.835 42.5303C860.947 44.9281 859.673 46.986 858.011 48.7041C856.35 50.4033 854.368 51.7155 852.064 52.6406C849.78 53.5469 847.221 54 844.389 54ZM839.518 12.7656V54H832.41V12.7656H839.518ZM869.19 39.0186V38.3672C869.19 36.1582 869.511 34.1097 870.153 32.2217C870.795 30.3148 871.72 28.6628 872.928 27.2656C874.155 25.8496 875.647 24.7546 877.403 23.9805C879.178 23.1875 881.179 22.791 883.407 22.791C885.654 22.791 887.655 23.1875 889.411 23.9805C891.185 24.7546 892.686 25.8496 893.914 27.2656C895.141 28.6628 896.075 30.3148 896.717 32.2217C897.359 34.1097 897.68 36.1582 897.68 38.3672V39.0186C897.68 41.2275 897.359 43.276 896.717 45.1641C896.075 47.0521 895.141 48.7041 893.914 50.1201C892.686 51.5173 891.195 52.6123 889.439 53.4053C887.683 54.1794 885.691 54.5664 883.463 54.5664C881.217 54.5664 879.206 54.1794 877.431 53.4053C875.675 52.6123 874.184 51.5173 872.957 50.1201C871.729 48.7041 870.795 47.0521 870.153 45.1641C869.511 43.276 869.19 41.2275 869.19 39.0186ZM876.015 38.3672V39.0186C876.015 40.3968 876.157 41.6995 876.44 42.9268C876.723 44.154 877.167 45.2301 877.771 46.1553C878.375 47.0804 879.149 47.8073 880.093 48.3359C881.037 48.8646 882.161 49.1289 883.463 49.1289C884.728 49.1289 885.823 48.8646 886.749 48.3359C887.693 47.8073 888.467 47.0804 889.071 46.1553C889.675 45.2301 890.119 44.154 890.402 42.9268C890.704 41.6995 890.855 40.3968 890.855 39.0186V38.3672C890.855 37.0078 890.704 35.724 890.402 34.5156C890.119 33.2884 889.666 32.2028 889.043 31.2588C888.438 30.3148 887.664 29.5785 886.72 29.0498C885.795 28.5023 884.691 28.2285 883.407 28.2285C882.123 28.2285 881.009 28.5023 880.065 29.0498C879.14 29.5785 878.375 30.3148 877.771 31.2588C877.167 32.2028 876.723 33.2884 876.44 34.5156C876.157 35.724 876.015 37.0078 876.015 38.3672ZM916.789 49.1289C917.902 49.1289 918.903 48.9118 919.79 48.4775C920.697 48.0244 921.424 47.4014 921.971 46.6084C922.538 45.8154 922.849 44.8997 922.906 43.8613H929.334C929.297 45.8438 928.711 47.6468 927.579 49.2705C926.446 50.8942 924.945 52.1875 923.076 53.1504C921.206 54.0944 919.139 54.5664 916.873 54.5664C914.532 54.5664 912.493 54.1699 910.756 53.377C909.019 52.5651 907.575 51.4512 906.423 50.0352C905.272 48.6191 904.403 46.986 903.818 45.1357C903.251 43.2855 902.968 41.3031 902.968 39.1885V38.1973C902.968 36.0827 903.251 34.1003 903.818 32.25C904.403 30.3809 905.272 28.7383 906.423 27.3223C907.575 25.9062 909.019 24.8018 910.756 24.0088C912.493 23.1969 914.523 22.791 916.845 22.791C919.3 22.791 921.452 23.2819 923.302 24.2637C925.152 25.2266 926.606 26.5765 927.664 28.3135C928.74 30.0316 929.297 32.0329 929.334 34.3174H922.906C922.849 33.1846 922.566 32.165 922.056 31.2588C921.565 30.3337 920.867 29.5973 919.96 29.0498C919.073 28.5023 918.006 28.2285 916.76 28.2285C915.382 28.2285 914.24 28.5117 913.333 29.0781C912.427 29.6257 911.719 30.3809 911.209 31.3438C910.7 32.2878 910.331 33.3545 910.105 34.5439C909.897 35.7145 909.793 36.9323 909.793 38.1973V39.1885C909.793 40.4535 909.897 41.6807 910.105 42.8701C910.313 44.0596 910.671 45.1263 911.181 46.0703C911.71 46.9954 912.427 47.7412 913.333 48.3076C914.24 48.8551 915.391 49.1289 916.789 49.1289ZM952.634 45.7021C952.634 45.0225 952.464 44.4089 952.124 43.8613C951.784 43.2949 951.133 42.7852 950.17 42.332C949.226 41.8789 947.829 41.4635 945.979 41.0859C944.355 40.7272 942.864 40.3024 941.504 39.8115C940.164 39.3018 939.012 38.6882 938.049 37.9707C937.086 37.2533 936.34 36.4036 935.812 35.4219C935.283 34.4401 935.019 33.3073 935.019 32.0234C935.019 30.7773 935.293 29.5973 935.84 28.4834C936.388 27.3695 937.171 26.3877 938.191 25.5381C939.21 24.6885 940.447 24.0182 941.901 23.5273C943.373 23.0365 945.016 22.791 946.828 22.791C949.396 22.791 951.596 23.2253 953.427 24.0938C955.277 24.9434 956.693 26.1045 957.675 27.5771C958.657 29.0309 959.148 30.6735 959.148 32.5049H952.323C952.323 31.693 952.115 30.9378 951.7 30.2393C951.303 29.5218 950.699 28.946 949.887 28.5117C949.075 28.0586 948.056 27.832 946.828 27.832C945.658 27.832 944.686 28.0208 943.911 28.3984C943.156 28.7572 942.59 29.2292 942.212 29.8145C941.854 30.3997 941.674 31.0417 941.674 31.7402C941.674 32.25 941.769 32.7126 941.957 33.1279C942.165 33.5244 942.505 33.8926 942.977 34.2324C943.449 34.5534 944.091 34.8555 944.903 35.1387C945.733 35.4219 946.772 35.6956 948.018 35.96C950.359 36.4508 952.37 37.0833 954.05 37.8574C955.749 38.6126 957.052 39.5944 957.958 40.8027C958.865 41.9922 959.318 43.5026 959.318 45.334C959.318 46.6934 959.025 47.9395 958.44 49.0723C957.873 50.1862 957.043 51.1585 955.948 51.9893C954.853 52.8011 953.54 53.4336 952.011 53.8867C950.501 54.3398 948.801 54.5664 946.913 54.5664C944.138 54.5664 941.787 54.0755 939.862 53.0938C937.936 52.0931 936.473 50.8187 935.472 49.2705C934.49 47.7035 933.999 46.0798 933.999 44.3994H940.598C940.673 45.6644 941.023 46.6745 941.646 47.4297C942.288 48.166 943.081 48.7041 944.025 49.0439C944.988 49.3649 945.979 49.5254 946.998 49.5254C948.226 49.5254 949.255 49.3649 950.085 49.0439C950.916 48.7041 951.548 48.251 951.983 47.6846C952.417 47.0993 952.634 46.4385 952.634 45.7021Z" fill="#FAFAFA"/>
</svg>
